<svg width="16" height="16" viewBox="0 0 16 16" fill="none" xmlns="http://www.w3.org/2000/svg">
<g filter="url(#filter0_d_26_7)">
<path d="M5 6V10H6V11H7V12H8V11H9V10H10V9H11V8H12V4H11V5H10V6H9V7H8V8H7V7H6V6H5Z" fill="#77ACDC" fill-opacity="0.8"/>
</g>
<path d="M5 7V9H6V10H7V11H8V10H9V9H10V8H11V7H12V5H11V6H10V7H9V8H8V9H7V8H6V7H5Z" fill="#B6EBFD"/>
<defs>
<filter id="filter0_d_26_7" x="1" y="0" width="15" height="16" filterUnits="userSpaceOnUse" color-interpolation-filters="sRGB">
<feFlood flood-opacity="0" result="BackgroundImageFix"/>
<feColorMatrix in="SourceAlpha" type="matrix" values="0 0 0 0 0 0 0 0 0 0 0 0 0 0 0 0 0 0 127 0" result="hardAlpha"/>
<feOffset/>
<feGaussianBlur stdDeviation="2"/>
<feComposite in2="hardAlpha" operator="out"/>
<feColorMatrix type="matrix" values="0 0 0 0 0 0 0 0 0 0.151786 0 0 0 0 0.708333 0 0 0 0.25 0"/>
<feBlend mode="normal" in2="BackgroundImageFix" result="effect1_dropShadow_26_7"/>
<feBlend mode="normal" in="SourceGraphic" in2="effect1_dropShadow_26_7" result="shape"/>
</filter>
</defs>
</svg>
