<svg width="49" height="40" viewBox="0 0 49 40" fill="context-fill" xmlns="http://www.w3.org/2000/svg">
<path d="M6 2C6 1.44772 6.44772 1 7 1H39C39.5523 1 40 1.44772 40 2V26C40 26.5523 39.5523 27 39 27H7C6.44772 27 6 26.5523 6 26V2Z" fill="none"/>
<path fill-rule="evenodd" clip-rule="evenodd" d="M7 1C6.44772 1 6 1.44772 6 2V26C6 26.5523 6.44772 27 7 27H39C39.5523 27 40 26.5523 40 26V2C40 1.44772 39.5523 1 39 1H7ZM39 8H7V25C7 25.5523 7.44772 26 8 26H38C38.5523 26 39 25.5523 39 25V8Z" fill="black" fill-opacity="0.05"/>
<path fill-rule="evenodd" clip-rule="evenodd" d="M39 8H7V25C7 25.5523 7.44772 26 8 26H38C38.5523 26 39 25.5523 39 25V8ZM17.356 13.7C17.332 13.66 17.288 13.64 17.224 13.64H16.612C16.556 13.64 16.508 13.656 16.468 13.688C16.436 13.712 16.408 13.744 16.384 13.784L15.112 18.056C15.088 18.136 15.06 18.176 15.028 18.176C14.996 18.176 14.968 18.14 14.944 18.068L13.6 13.796C13.592 13.748 13.568 13.712 13.528 13.688C13.488 13.656 13.444 13.64 13.396 13.64H12.7C12.644 13.64 12.6 13.652 12.568 13.676C12.536 13.7 12.512 13.736 12.496 13.784L11.2 18.056C11.176 18.136 11.144 18.176 11.104 18.176C11.072 18.176 11.048 18.14 11.032 18.068L9.71197 13.796C9.69597 13.748 9.66797 13.712 9.62797 13.688C9.58797 13.656 9.54397 13.64 9.49597 13.64H8.55997C8.49597 13.64 8.45197 13.66 8.42797 13.7C8.40397 13.74 8.39997 13.792 8.41597 13.856L10.324 19.82C10.356 19.94 10.444 20 10.588 20H11.332C11.396 20 11.444 19.988 11.476 19.964C11.516 19.94 11.544 19.896 11.56 19.832L12.82 15.704C12.836 15.632 12.856 15.596 12.88 15.596C12.912 15.596 12.944 15.632 12.976 15.704L14.272 19.82C14.312 19.94 14.404 20 14.548 20H15.244C15.316 20 15.368 19.988 15.4 19.964C15.44 19.94 15.468 19.896 15.484 19.832L17.356 13.844C17.38 13.788 17.38 13.74 17.356 13.7ZM27.4716 13.7C27.4476 13.66 27.4036 13.64 27.3396 13.64H26.7276C26.6716 13.64 26.6236 13.656 26.5836 13.688C26.5516 13.712 26.5236 13.744 26.4996 13.784L25.2276 18.056C25.2036 18.136 25.1756 18.176 25.1436 18.176C25.1116 18.176 25.0836 18.14 25.0596 18.068L23.7156 13.796C23.7076 13.748 23.6836 13.712 23.6436 13.688C23.6036 13.656 23.5596 13.64 23.5116 13.64H22.8156C22.7596 13.64 22.7156 13.652 22.6836 13.676C22.6516 13.7 22.6276 13.736 22.6116 13.784L21.3156 18.056C21.2916 18.136 21.2596 18.176 21.2196 18.176C21.1876 18.176 21.1636 18.14 21.1476 18.068L19.8276 13.796C19.8116 13.748 19.7836 13.712 19.7436 13.688C19.7036 13.656 19.6596 13.64 19.6116 13.64H18.6756C18.6116 13.64 18.5676 13.66 18.5436 13.7C18.5196 13.74 18.5156 13.792 18.5316 13.856L20.4396 19.82C20.4716 19.94 20.5596 20 20.7036 20H21.4476C21.5116 20 21.5596 19.988 21.5916 19.964C21.6316 19.94 21.6596 19.896 21.6756 19.832L22.9356 15.704C22.9516 15.632 22.9716 15.596 22.9956 15.596C23.0276 15.596 23.0596 15.632 23.0916 15.704L24.3876 19.82C24.4276 19.94 24.5196 20 24.6636 20H25.3596C25.4316 20 25.4836 19.988 25.5156 19.964C25.5556 19.94 25.5836 19.896 25.5996 19.832L27.4716 13.844C27.4956 13.788 27.4956 13.74 27.4716 13.7ZM37.5872 13.7C37.5632 13.66 37.5192 13.64 37.4552 13.64H36.8432C36.7872 13.64 36.7392 13.656 36.6992 13.688C36.6672 13.712 36.6392 13.744 36.6152 13.784L35.3432 18.056C35.3192 18.136 35.2912 18.176 35.2592 18.176C35.2272 18.176 35.1992 18.14 35.1752 18.068L33.8312 13.796C33.8232 13.748 33.7992 13.712 33.7592 13.688C33.7192 13.656 33.6752 13.64 33.6272 13.64H32.9312C32.8752 13.64 32.8312 13.652 32.7992 13.676C32.7672 13.7 32.7432 13.736 32.7272 13.784L31.4312 18.056C31.4072 18.136 31.3752 18.176 31.3352 18.176C31.3032 18.176 31.2792 18.14 31.2632 18.068L29.9432 13.796C29.9272 13.748 29.8992 13.712 29.8592 13.688C29.8192 13.656 29.7752 13.64 29.7272 13.64H28.7912C28.7272 13.64 28.6832 13.66 28.6592 13.7C28.6352 13.74 28.6312 13.792 28.6472 13.856L30.5552 19.82C30.5872 19.94 30.6752 20 30.8192 20H31.5632C31.6272 20 31.6752 19.988 31.7072 19.964C31.7472 19.94 31.7752 19.896 31.7912 19.832L33.0512 15.704C33.0672 15.632 33.0872 15.596 33.1112 15.596C33.1432 15.596 33.1752 15.632 33.2072 15.704L34.5032 19.82C34.5432 19.94 34.6352 20 34.7792 20H35.4752C35.5472 20 35.5992 19.988 35.6312 19.964C35.6712 19.94 35.6992 19.896 35.7152 19.832L37.5872 13.844C37.6112 13.788 37.6112 13.74 37.5872 13.7Z" fill="url(#paint0_linear_3_36)"/>
<path d="M17.224 13.64C17.288 13.64 17.332 13.66 17.356 13.7C17.38 13.74 17.38 13.788 17.356 13.844L15.484 19.832C15.468 19.896 15.44 19.94 15.4 19.964C15.368 19.988 15.316 20 15.244 20H14.548C14.404 20 14.312 19.94 14.272 19.82L12.976 15.704C12.944 15.632 12.912 15.596 12.88 15.596C12.856 15.596 12.836 15.632 12.82 15.704L11.56 19.832C11.544 19.896 11.516 19.94 11.476 19.964C11.444 19.988 11.396 20 11.332 20H10.588C10.444 20 10.356 19.94 10.324 19.82L8.41597 13.856C8.39997 13.792 8.40397 13.74 8.42797 13.7C8.45197 13.66 8.49597 13.64 8.55997 13.64H9.49597C9.54397 13.64 9.58797 13.656 9.62797 13.688C9.66797 13.712 9.69597 13.748 9.71197 13.796L11.032 18.068C11.048 18.14 11.072 18.176 11.104 18.176C11.144 18.176 11.176 18.136 11.2 18.056L12.496 13.784C12.512 13.736 12.536 13.7 12.568 13.676C12.6 13.652 12.644 13.64 12.7 13.64H13.396C13.444 13.64 13.488 13.656 13.528 13.688C13.568 13.712 13.592 13.748 13.6 13.796L14.944 18.068C14.968 18.14 14.996 18.176 15.028 18.176C15.06 18.176 15.088 18.136 15.112 18.056L16.384 13.784C16.408 13.744 16.436 13.712 16.468 13.688C16.508 13.656 16.556 13.64 16.612 13.64H17.224ZM27.3396 13.64C27.4036 13.64 27.4476 13.66 27.4716 13.7C27.4956 13.74 27.4956 13.788 27.4716 13.844L25.5996 19.832C25.5836 19.896 25.5556 19.94 25.5156 19.964C25.4836 19.988 25.4316 20 25.3596 20H24.6636C24.5196 20 24.4276 19.94 24.3876 19.82L23.0916 15.704C23.0596 15.632 23.0276 15.596 22.9956 15.596C22.9716 15.596 22.9516 15.632 22.9356 15.704L21.6756 19.832C21.6596 19.896 21.6316 19.94 21.5916 19.964C21.5596 19.988 21.5116 20 21.4476 20H20.7036C20.5596 20 20.4716 19.94 20.4396 19.82L18.5316 13.856C18.5156 13.792 18.5196 13.74 18.5436 13.7C18.5676 13.66 18.6116 13.64 18.6756 13.64H19.6116C19.6596 13.64 19.7036 13.656 19.7436 13.688C19.7836 13.712 19.8116 13.748 19.8276 13.796L21.1476 18.068C21.1636 18.14 21.1876 18.176 21.2196 18.176C21.2596 18.176 21.2916 18.136 21.3156 18.056L22.6116 13.784C22.6276 13.736 22.6516 13.7 22.6836 13.676C22.7156 13.652 22.7596 13.64 22.8156 13.64H23.5116C23.5596 13.64 23.6036 13.656 23.6436 13.688C23.6836 13.712 23.7076 13.748 23.7156 13.796L25.0596 18.068C25.0836 18.14 25.1116 18.176 25.1436 18.176C25.1756 18.176 25.2036 18.136 25.2276 18.056L26.4996 13.784C26.5236 13.744 26.5516 13.712 26.5836 13.688C26.6236 13.656 26.6716 13.64 26.7276 13.64H27.3396ZM37.4552 13.64C37.5192 13.64 37.5632 13.66 37.5872 13.7C37.6112 13.74 37.6112 13.788 37.5872 13.844L35.7152 19.832C35.6992 19.896 35.6712 19.94 35.6312 19.964C35.5992 19.988 35.5472 20 35.4752 20H34.7792C34.6352 20 34.5432 19.94 34.5032 19.82L33.2072 15.704C33.1752 15.632 33.1432 15.596 33.1112 15.596C33.0872 15.596 33.0672 15.632 33.0512 15.704L31.7912 19.832C31.7752 19.896 31.7472 19.94 31.7072 19.964C31.6752 19.988 31.6272 20 31.5632 20H30.8192C30.6752 20 30.5872 19.94 30.5552 19.82L28.6472 13.856C28.6312 13.792 28.6352 13.74 28.6592 13.7C28.6832 13.66 28.7272 13.64 28.7912 13.64H29.7272C29.7752 13.64 29.8192 13.656 29.8592 13.688C29.8992 13.712 29.9272 13.748 29.9432 13.796L31.2632 18.068C31.2792 18.14 31.3032 18.176 31.3352 18.176C31.3752 18.176 31.4072 18.136 31.4312 18.056L32.7272 13.784C32.7432 13.736 32.7672 13.7 32.7992 13.676C32.8312 13.652 32.8752 13.64 32.9312 13.64H33.6272C33.6752 13.64 33.7192 13.656 33.7592 13.688C33.7992 13.712 33.8232 13.748 33.8312 13.796L35.1752 18.068C35.1992 18.14 35.2272 18.176 35.2592 18.176C35.2912 18.176 35.3192 18.136 35.3432 18.056L36.6152 13.784C36.6392 13.744 36.6672 13.712 36.6992 13.688C36.7392 13.656 36.7872 13.64 36.8432 13.64H37.4552Z" fill="white" fill-opacity="0.5"/>
<rect x="7" y="1" width="32" height="5" fill="url(#paint1_linear_3_36)"/>
<rect x="7" y="6" width="32" height="2" fill="url(#paint2_linear_3_36)"/>
<mask id="path-7-outside-1_3_36" maskUnits="userSpaceOnUse" x="29" y="18" width="16" height="18" fill="black">
<rect fill="white" x="29" y="18" width="16" height="18"/>
<path fill-rule="evenodd" clip-rule="evenodd" d="M37.3717 30.5679C38.5543 30.5679 39.1768 29.4832 39.1768 29.1642H43.4405C43.4405 29.9936 41.9363 33.439 37.3094 33.439C35.0375 33.439 32.7344 32.482 31.8941 30.7593L31.8319 30.855C29.8401 35.0022 33.0768 34.7151 35.4732 33.4709C35.4901 33.4632 35.5096 33.454 35.5307 33.4441C35.6505 33.3878 35.8202 33.3079 35.8467 33.3433C35.8842 33.3934 35.753 33.4907 35.6454 33.5704C35.6161 33.5921 35.5885 33.6126 35.5666 33.6304C33.0754 35.6566 27.4364 36.4269 31.3339 28.7176L31.3354 28.7144C31.5744 28.1944 31.8338 27.6302 32.7656 26.2931C34.6407 23.9311 35.5318 23.4013 35.9271 23.1663C36.0764 23.0776 36.1549 23.0309 36.189 22.9434C36.3135 22.6244 33.2635 23.9962 30.836 27.3139C30.836 24.1876 33.3258 21.3803 37.2783 21.3803C37.7365 21.3803 38.1726 21.4195 38.5854 21.4938C41.1375 19.7852 42.5691 19.8497 43.2849 20.1999C44.6543 20.8698 43.6584 23.2305 43.5339 23.2943C43.504 23.3096 43.5281 23.208 43.569 23.0353C43.6987 22.4881 43.9974 21.2269 43.2849 20.7103C42.0397 19.8075 39.9647 21.0772 39.1132 21.5982C39.0921 21.6111 39.0718 21.6235 39.0523 21.6355C41.9305 22.3547 43.5339 24.7994 43.5339 27.4734V28.271H35.3798C35.3798 29.866 36.189 30.5679 37.3717 30.5679ZM39.3013 26.3568C39.3013 25.2722 38.6788 24.3152 37.3717 24.3152C36.0645 24.3152 35.3176 25.2084 35.3176 26.3568H39.3013Z"/>
</mask>
<path d="M39.1768 29.1642V28.1642H38.1768V29.1642H39.1768ZM43.4405 29.1642H44.4405V28.1642H43.4405V29.1642ZM31.8941 30.7593L32.7929 30.3209L32.0187 28.7336L31.0558 30.2141L31.8941 30.7593ZM31.8319 30.855L30.9936 30.3098L30.9584 30.3639L30.9305 30.422L31.8319 30.855ZM35.4732 33.4709L35.0589 32.5608L35.0354 32.5715L35.0124 32.5834L35.4732 33.4709ZM35.5307 33.4441L35.1049 32.5393L35.1049 32.5393L35.5307 33.4441ZM35.8467 33.3433L36.6474 32.7443L36.6474 32.7443L35.8467 33.3433ZM35.6454 33.5704L36.2409 34.3738H36.2409L35.6454 33.5704ZM35.5666 33.6304L34.9356 32.8546L34.9356 32.8546L35.5666 33.6304ZM31.3339 28.7176L32.2264 29.1688L32.2348 29.1522L32.2425 29.1353L31.3339 28.7176ZM31.3354 28.7144L32.244 29.1321L32.244 29.132L31.3354 28.7144ZM32.7656 26.2931L31.9824 25.6713L31.963 25.6958L31.9451 25.7214L32.7656 26.2931ZM35.9271 23.1663L36.4381 24.0259L36.4381 24.0259L35.9271 23.1663ZM36.189 22.9434L35.2574 22.5799L35.2574 22.5799L36.189 22.9434ZM30.836 27.3139H29.836V30.3741L31.643 27.9044L30.836 27.3139ZM37.2783 21.3803L37.2783 22.3803L37.2783 21.3803ZM38.5854 21.4938L38.4083 22.478L38.806 22.5496L39.1418 22.3248L38.5854 21.4938ZM43.2849 20.1999L43.7244 19.3016L43.7244 19.3016L43.2849 20.1999ZM43.5339 23.2943L43.0778 22.4044L43.0778 22.4044L43.5339 23.2943ZM43.569 23.0353L42.596 22.8048V22.8048L43.569 23.0353ZM43.2849 20.7103L42.6979 21.5199V21.5199L43.2849 20.7103ZM39.1132 21.5982L38.5913 20.7452L38.5913 20.7452L39.1132 21.5982ZM39.0523 21.6355L38.5311 20.782L36.4927 22.0267L38.8099 22.6056L39.0523 21.6355ZM43.5339 28.271V29.271H44.5339V28.271H43.5339ZM35.3798 28.271V27.271H34.3798V28.271H35.3798ZM39.3013 26.3568V27.3568H40.3013V26.3568H39.3013ZM35.3176 26.3568H34.3176V27.3568H35.3176V26.3568ZM38.1768 29.1642C38.1768 29.1064 38.1834 29.065 38.1871 29.0456C38.1912 29.0243 38.195 29.0123 38.1956 29.0103C38.1966 29.0073 38.1917 29.0227 38.1754 29.0538C38.1425 29.1164 38.0845 29.2027 38.0019 29.2874C37.8395 29.4539 37.6326 29.5679 37.3717 29.5679V31.5679C38.2933 31.5679 38.9891 31.1395 39.4335 30.684C39.6543 30.4576 39.8258 30.2129 39.9467 29.9825C40.0483 29.7887 40.1768 29.4874 40.1768 29.1642H38.1768ZM43.4405 28.1642H39.1768V30.1642H43.4405V28.1642ZM37.3094 34.439C39.8984 34.439 41.6848 33.4647 42.8211 32.3158C43.3806 31.7501 43.7751 31.1499 44.0329 30.6186C44.2751 30.1194 44.4405 29.5895 44.4405 29.1642H42.4405C42.4405 29.1537 42.4179 29.3655 42.2335 29.7455C42.0647 30.0935 41.7939 30.5102 41.3991 30.9095C40.6265 31.6906 39.3473 32.439 37.3094 32.439V34.439ZM30.9954 31.1977C32.0768 33.4148 34.8581 34.439 37.3094 34.439V32.439C35.2169 32.439 33.3921 31.5491 32.7929 30.3209L30.9954 31.1977ZM32.6702 31.4002L32.7325 31.3045L31.0558 30.2141L30.9936 30.3098L32.6702 31.4002ZM35.0124 32.5834C34.475 32.8624 33.9044 33.0797 33.3937 33.1946C32.8577 33.3152 32.5034 33.297 32.3277 33.2375C32.2909 33.225 32.2702 33.2134 32.2603 33.207C32.2554 33.2038 32.2527 33.2015 32.2515 33.2004C32.2503 33.1994 32.2499 33.1988 32.2497 33.1986C32.2495 33.1983 32.2487 33.1973 32.2473 33.195C32.2459 33.1927 32.2433 33.1879 32.2402 33.1799C32.2338 33.1641 32.2235 33.1315 32.2172 33.0758C32.1883 32.82 32.2626 32.2681 32.7333 31.2879L30.9305 30.422C30.4053 31.5155 30.1373 32.4828 30.2299 33.3008C30.2786 33.7308 30.4292 34.1332 30.704 34.4679C30.9775 34.8008 31.3275 35.0104 31.6863 35.1319C32.3703 35.3635 33.15 35.2994 33.8326 35.1459C34.5405 34.9866 35.2732 34.7015 35.934 34.3584L35.0124 32.5834ZM35.1049 32.5393C35.0822 32.55 35.0689 32.5562 35.0589 32.5608L35.8875 34.381C35.9113 34.3702 35.937 34.3581 35.9564 34.349L35.1049 32.5393ZM36.6474 32.7443C36.4242 32.4459 36.1214 32.3673 35.9764 32.3459C35.8274 32.3239 35.7056 32.3392 35.6473 32.3484C35.5253 32.3676 35.4229 32.4042 35.375 32.422C35.2672 32.4622 35.1543 32.5161 35.1049 32.5393L35.9564 34.349C35.9876 34.3343 36.0123 34.3227 36.0357 34.3122C36.0468 34.3073 36.0557 34.3034 36.0626 34.3005C36.0697 34.2975 36.0727 34.2964 36.0723 34.2966C36.072 34.2967 36.07 34.2974 36.0666 34.2986C36.0633 34.2997 36.0576 34.3015 36.0499 34.3038C36.0376 34.3075 36.005 34.3167 35.9587 34.324C35.9219 34.3298 35.8187 34.3442 35.6844 34.3244C35.5542 34.3052 35.2625 34.2318 35.046 33.9423L36.6474 32.7443ZM36.2409 34.3738C36.277 34.347 36.3984 34.2595 36.4988 34.1615C36.5427 34.1187 36.6558 34.0055 36.7406 33.836C36.8292 33.6588 36.9824 33.192 36.6474 32.7443L35.046 33.9423C34.9083 33.7583 34.848 33.5418 34.8536 33.3368C34.8586 33.1525 34.9151 33.0148 34.9518 32.9414C35.0192 32.8067 35.0998 32.7322 35.1021 32.7299C35.1194 32.7131 35.1214 32.7141 35.05 32.767L36.2409 34.3738ZM36.1976 34.4062C36.1955 34.4079 36.1974 34.4063 36.2063 34.3995C36.2151 34.3929 36.2254 34.3853 36.2409 34.3738L35.05 32.767C35.0265 32.7844 34.9787 32.8196 34.9356 32.8546L36.1976 34.4062ZM30.4415 28.2664C29.4409 30.2457 28.9766 31.8186 29.0009 33.0424C29.0134 33.6694 29.1551 34.2411 29.4544 34.7223C29.758 35.2105 30.1865 35.5451 30.6676 35.7469C31.5878 36.1331 32.6676 36.0275 33.5841 35.7623C34.5268 35.4896 35.4672 35.0002 36.1976 34.4062L34.9356 32.8546C34.4203 33.2737 33.7217 33.6405 33.0282 33.8411C32.3086 34.0493 31.7552 34.0344 31.4414 33.9027C31.3055 33.8457 31.2169 33.7693 31.1527 33.6661C31.0842 33.5559 31.0075 33.3559 31.0005 33.0027C30.9859 32.2659 31.2783 31.0441 32.2264 29.1688L30.4415 28.2664ZM30.4268 28.2967L30.4254 28.2999L32.2425 29.1353L32.244 29.1321L30.4268 28.2967ZM31.9451 25.7214C30.9759 27.1122 30.6879 27.7289 30.4268 28.2967L32.244 29.132C32.461 28.66 32.6917 28.1482 33.586 26.8648L31.9451 25.7214ZM35.4161 22.3067C34.8986 22.6144 33.9189 23.2319 31.9824 25.6713L33.5488 26.9148C35.3624 24.6303 36.1651 24.1882 36.4381 24.0259L35.4161 22.3067ZM35.2574 22.5799C35.2869 22.5044 35.3275 22.4356 35.3748 22.3768C35.4193 22.3213 35.4603 22.2864 35.4805 22.2704C35.4991 22.2557 35.5077 22.251 35.4927 22.2606C35.4772 22.2703 35.4566 22.2826 35.4161 22.3067L36.4381 24.0259C36.4908 23.9946 36.6151 23.923 36.722 23.8384C36.8575 23.7311 37.0206 23.5633 37.1206 23.307L35.2574 22.5799ZM31.643 27.9044C32.7799 26.3506 34.0622 25.2544 35.0337 24.5905C35.5219 24.2569 35.9137 24.0447 36.1512 23.9396C36.2857 23.8801 36.3145 23.8801 36.2682 23.8883C36.2511 23.8913 36.2065 23.8985 36.144 23.8985C36.0931 23.8985 35.9563 23.8949 35.7934 23.8273C35.6071 23.7502 35.3532 23.5697 35.2417 23.2314C35.1427 22.931 35.2172 22.6831 35.2574 22.5799L37.1206 23.307C37.1687 23.1838 37.2447 22.9193 37.1413 22.6056C37.0255 22.254 36.7612 22.0635 36.5588 21.9796C36.3798 21.9055 36.2211 21.8985 36.1429 21.8985C36.0531 21.8985 35.9757 21.909 35.9205 21.9188C35.7217 21.9539 35.5137 22.0347 35.3418 22.1107C34.9666 22.2768 34.4675 22.5551 33.9053 22.9393C32.7761 23.7109 31.3196 24.9595 30.0289 26.7234L31.643 27.9044ZM37.2783 20.3803C32.794 20.3803 29.836 23.615 29.836 27.3139H31.836C31.836 24.7602 33.8576 22.3803 37.2783 22.3803L37.2783 20.3803ZM38.7626 20.5096C38.2891 20.4244 37.7937 20.3803 37.2783 20.3803L37.2783 22.3803C37.6793 22.3803 38.056 22.4146 38.4083 22.478L38.7626 20.5096ZM43.7244 19.3016C42.529 18.7169 40.6923 18.8798 38.0291 20.6629L39.1418 22.3248C41.5827 20.6905 42.6092 20.9826 42.8455 21.0982L43.7244 19.3016ZM43.99 24.1843C44.1716 24.0912 44.2794 23.9649 44.3047 23.9355C44.3486 23.8847 44.3814 23.8375 44.4019 23.8063C44.4441 23.7422 44.4795 23.677 44.5071 23.6226C44.5643 23.5098 44.6227 23.3738 44.6774 23.2265C44.7867 22.9324 44.9017 22.5383 44.9604 22.1101C45.0641 21.3527 45.0408 19.9457 43.7244 19.3016L42.8455 21.0982C42.9022 21.1259 42.934 21.1559 42.9631 21.2508C43.0017 21.3764 43.0149 21.5758 42.9789 21.8388C42.9441 22.0924 42.8724 22.3423 42.8027 22.5298C42.768 22.6232 42.7389 22.6874 42.7231 22.7185C42.7142 22.736 42.7168 22.7287 42.7314 22.7065C42.7382 22.6963 42.7584 22.6661 42.7913 22.628C42.8057 22.6114 42.904 22.4935 43.0778 22.4044L43.99 24.1843ZM42.596 22.8048C42.5797 22.8734 42.5527 22.9848 42.5381 23.0734C42.5358 23.0878 42.5068 23.2393 42.5293 23.4129C42.5353 23.4591 42.5743 23.8216 42.9106 24.0836C43.3662 24.4385 43.8435 24.2593 43.99 24.1843L43.0778 22.4044C43.2168 22.3332 43.6883 22.1542 44.1397 22.5058C44.4718 22.7645 44.5081 23.1202 44.5128 23.1563C44.5253 23.2529 44.5194 23.3265 44.5178 23.3459C44.5155 23.3743 44.5123 23.3935 44.5117 23.3973C44.5105 23.4045 44.5112 23.3992 44.5177 23.3701C44.5238 23.3433 44.5315 23.3107 44.5421 23.2659L42.596 22.8048ZM42.6979 21.5199C42.655 21.4888 42.7442 21.5094 42.7428 21.8572C42.7415 22.1748 42.6632 22.5208 42.596 22.8048L44.5421 23.2659C44.6045 23.0026 44.7404 22.4444 44.7428 21.8654C44.745 21.3168 44.6273 20.4484 43.8719 19.9007L42.6979 21.5199ZM39.6351 22.4512C40.0689 22.1858 40.7138 21.7949 41.3779 21.5656C42.0896 21.3197 42.4933 21.3716 42.6979 21.5199L43.8719 19.9007C42.8313 19.1463 41.5749 19.3816 40.7249 19.6751C39.8273 19.9852 39.009 20.4896 38.5913 20.7452L39.6351 22.4512ZM39.5734 22.4889C39.5934 22.4767 39.6141 22.4641 39.6351 22.4512L38.5913 20.7452C38.5701 20.7582 38.5502 20.7704 38.5311 20.782L39.5734 22.4889ZM44.5339 27.4734C44.5339 24.391 42.6654 21.5075 39.2947 20.6653L38.8099 22.6056C41.1956 23.2018 42.5339 25.2077 42.5339 27.4734H44.5339ZM44.5339 28.271V27.4734H42.5339V28.271H44.5339ZM35.3798 29.271H43.5339V27.271H35.3798V29.271ZM37.3717 29.5679C36.9784 29.5679 36.7762 29.4561 36.6631 29.335C36.5412 29.2045 36.3798 28.9096 36.3798 28.271H34.3798C34.3798 29.2274 34.6231 30.081 35.2015 30.7002C35.7886 31.3287 36.5823 31.5679 37.3717 31.5679V29.5679ZM37.3717 25.3152C37.759 25.3152 37.9528 25.4455 38.0651 25.5774C38.1969 25.7322 38.3013 25.995 38.3013 26.3568H40.3013C40.3013 25.634 40.0944 24.876 39.5882 24.2811C39.0624 23.6634 38.2915 23.3152 37.3717 23.3152V25.3152ZM36.3176 26.3568C36.3176 25.9986 36.4318 25.7488 36.5779 25.5957C36.7166 25.4504 36.9566 25.3152 37.3717 25.3152V23.3152C36.4796 23.3152 35.6926 23.6265 35.131 24.2149C34.5769 24.7956 34.3176 25.5666 34.3176 26.3568H36.3176ZM39.3013 25.3568H35.3176V27.3568H39.3013V25.3568Z" fill="#244C83" mask="url(#path-7-outside-1_3_36)"/>
<g filter="url(#filter0_di_3_36)">
<path fill-rule="evenodd" clip-rule="evenodd" d="M37.3717 30.5679C38.5543 30.5679 39.1768 29.4832 39.1768 29.1642H43.4405C43.4405 29.9936 41.9363 33.439 37.3094 33.439C35.0375 33.439 32.7344 32.482 31.8941 30.7593L31.8319 30.855C29.8401 35.0022 33.0768 34.7151 35.4732 33.4709C35.4901 33.4632 35.5096 33.454 35.5307 33.4441C35.6505 33.3878 35.8202 33.3079 35.8467 33.3433C35.8842 33.3934 35.753 33.4907 35.6454 33.5704C35.6161 33.5921 35.5885 33.6126 35.5666 33.6304C33.0754 35.6566 27.4364 36.4269 31.3339 28.7176L31.3354 28.7144C31.5744 28.1944 31.8338 27.6302 32.7656 26.2931C34.6407 23.9311 35.5318 23.4013 35.9271 23.1663C36.0764 23.0776 36.1549 23.0309 36.189 22.9434C36.3135 22.6244 33.2635 23.9962 30.836 27.3139C30.836 24.1876 33.3258 21.3803 37.2783 21.3803C37.7365 21.3803 38.1726 21.4195 38.5854 21.4938C41.1375 19.7852 42.5691 19.8497 43.2849 20.1999C44.6543 20.8698 43.6584 23.2305 43.5339 23.2943C43.504 23.3096 43.5281 23.208 43.569 23.0353C43.6987 22.4881 43.9974 21.2269 43.2849 20.7103C42.0397 19.8075 39.9647 21.0772 39.1132 21.5982C39.0921 21.6111 39.0718 21.6235 39.0523 21.6355C41.9305 22.3547 43.5339 24.7994 43.5339 27.4734V28.271H35.3798C35.3798 29.866 36.189 30.5679 37.3717 30.5679ZM39.3013 26.3568C39.3013 25.2722 38.6788 24.3152 37.3717 24.3152C36.0645 24.3152 35.3176 25.2084 35.3176 26.3568H39.3013Z" fill="url(#paint3_linear_3_36)"/>
</g>
<path fill-rule="evenodd" clip-rule="evenodd" d="M37.3717 30.5679C38.5543 30.5679 39.1768 29.4832 39.1768 29.1642H43.4405C43.4405 29.9936 41.9363 33.439 37.3094 33.439C35.0375 33.439 32.7344 32.482 31.8941 30.7593L31.8319 30.855C29.8401 35.0022 33.0768 34.7151 35.4732 33.4709C35.4901 33.4632 35.5096 33.454 35.5307 33.4441C35.6505 33.3878 35.8202 33.3079 35.8467 33.3433C35.8842 33.3934 35.753 33.4907 35.6454 33.5704C35.6161 33.5921 35.5885 33.6126 35.5666 33.6304C33.0754 35.6566 27.4364 36.4269 31.3339 28.7176L31.3354 28.7144C31.5744 28.1944 31.8338 27.6302 32.7656 26.2931C34.6407 23.9311 35.5318 23.4013 35.9271 23.1663C36.0764 23.0776 36.1549 23.0309 36.189 22.9434C36.3135 22.6244 33.2635 23.9962 30.836 27.3139C30.836 24.1876 33.3258 21.3803 37.2783 21.3803C37.7365 21.3803 38.1726 21.4195 38.5854 21.4938C41.1375 19.7852 42.5691 19.8497 43.2849 20.1999C44.6543 20.8698 43.6584 23.2305 43.5339 23.2943C43.504 23.3096 43.5281 23.208 43.569 23.0353C43.6987 22.4881 43.9974 21.2269 43.2849 20.7103C42.0397 19.8075 39.9647 21.0772 39.1132 21.5982C39.0921 21.6111 39.0718 21.6235 39.0523 21.6355C41.9305 22.3547 43.5339 24.7994 43.5339 27.4734V28.271H35.3798C35.3798 29.866 36.189 30.5679 37.3717 30.5679ZM39.3013 26.3568C39.3013 25.2722 38.6788 24.3152 37.3717 24.3152C36.0645 24.3152 35.3176 25.2084 35.3176 26.3568H39.3013Z" fill="url(#paint4_linear_3_36)" fill-opacity="0.7" style="mix-blend-mode:overlay"/>
<defs>
<filter id="filter0_di_3_36" x="27" y="17" width="22" height="23" filterUnits="userSpaceOnUse" color-interpolation-filters="sRGB">
<feFlood flood-opacity="0" result="BackgroundImageFix"/>
<feColorMatrix in="SourceAlpha" type="matrix" values="0 0 0 0 0 0 0 0 0 0 0 0 0 0 0 0 0 0 127 0" result="hardAlpha"/>
<feOffset dx="1" dy="1"/>
<feGaussianBlur stdDeviation="2"/>
<feComposite in2="hardAlpha" operator="out"/>
<feColorMatrix type="matrix" values="0 0 0 0 0.339863 0 0 0 0 0.560895 0 0 0 0 0.860402 0 0 0 0.6 0"/>
<feBlend mode="normal" in2="BackgroundImageFix" result="effect1_dropShadow_3_36"/>
<feBlend mode="normal" in="SourceGraphic" in2="effect1_dropShadow_3_36" result="shape"/>
<feColorMatrix in="SourceAlpha" type="matrix" values="0 0 0 0 0 0 0 0 0 0 0 0 0 0 0 0 0 0 127 0" result="hardAlpha"/>
<feOffset dx="-0.5" dy="-0.5"/>
<feGaussianBlur stdDeviation="0.75"/>
<feComposite in2="hardAlpha" operator="arithmetic" k2="-1" k3="1"/>
<feColorMatrix type="matrix" values="0 0 0 0 1 0 0 0 0 1 0 0 0 0 1 0 0 0 1 0"/>
<feBlend mode="normal" in2="shape" result="effect2_innerShadow_3_36"/>
</filter>
<linearGradient id="paint0_linear_3_36" x1="23" y1="8" x2="23" y2="26" gradientUnits="userSpaceOnUse">
<stop stop-color="white" stop-opacity="0.9"/>
<stop offset="0.33" stop-color="white" stop-opacity="0.85"/>
<stop offset="1" stop-color="white" stop-opacity="0.65"/>
</linearGradient>
<linearGradient id="paint1_linear_3_36" x1="7" y1="3.5" x2="39" y2="3.5" gradientUnits="userSpaceOnUse">
<stop stop-color="white" stop-opacity="0"/>
<stop offset="0.5" stop-color="white" stop-opacity="0.35"/>
<stop offset="1" stop-color="#4E84D3" stop-opacity="0"/>
</linearGradient>
<linearGradient id="paint2_linear_3_36" x1="7" y1="7" x2="39" y2="7" gradientUnits="userSpaceOnUse">
<stop stop-opacity="0.1"/>
<stop offset="0.5" stop-color="white" stop-opacity="0.15"/>
<stop offset="1" stop-opacity="0.1"/>
</linearGradient>
<linearGradient id="paint3_linear_3_36" x1="41.3242" y1="32.2267" x2="32.2796" y2="23.2213" gradientUnits="userSpaceOnUse">
<stop stop-color="#6FAEF3"/>
<stop offset="0.132201" stop-color="#578FDB"/>
<stop offset="0.5" stop-color="#4E84D3"/>
<stop offset="1" stop-color="#6FAEF3"/>
</linearGradient>
<linearGradient id="paint4_linear_3_36" x1="41.5" y1="32" x2="33" y2="23" gradientUnits="userSpaceOnUse">
<stop offset="0.024309" stop-color="white"/>
<stop offset="0.340245" stop-color="white" stop-opacity="0.0471926"/>
<stop offset="0.879895" stop-color="white" stop-opacity="0"/>
<stop offset="1" stop-color="white"/>
</linearGradient>
</defs>
</svg>
