<svg width="39" height="39" viewBox="0 0 39 39" xmlns="http://www.w3.org/2000/svg" xmlns:xlink="http://www.w3.org/1999/xlink" fill="context-fill">
<path d="M12.2246 30.6753L11.9527 31.6557C11.8292 32.1014 12.3249 32.4615 12.7105 32.2063L19.2838 27.8559L18 27L12.2246 30.6753Z" fill="black" fill-opacity="0.4"/>
<path d="M27.8391 31.2464L29.2895 32.2063C29.6751 32.4615 30.1708 32.1014 30.0473 31.6557L27.4795 22.3955C27.4259 22.2021 27.4931 21.9955 27.6501 21.8706L35.1705 15.8882C35.5324 15.6003 35.343 15.0175 34.881 14.9974L33.2348 14.9254L25.5 21.5L27.8391 31.2464Z" fill="black" fill-opacity="0.4"/>
<path d="M24.2028 12.5655L21.4683 5.25248C21.3064 4.8193 20.6936 4.8193 20.5317 5.25248L20.1575 6.25324L22.5 12.5L24.2028 12.5655Z" fill="black" fill-opacity="0.4"/>
<path d="M17.0637 2.99688C17.3881 2.13171 18.6119 2.13171 18.9363 2.99688L22.5 12.5L32.9349 12.9013C33.8457 12.9364 34.2386 14.0722 33.5441 14.6625L25.5 21.5L27.9047 31.5197C28.117 32.404 27.1343 33.0895 26.3776 32.5851L18 27L9.20434 32.5972C8.43041 33.0897 7.45715 32.3673 7.70449 31.484L10.5 21.5L2.45593 14.6625C1.76141 14.0722 2.15429 12.9364 3.06515 12.9013L13.5 12.5L17.0637 2.99688Z" fill="none"/>
<path d="M17.8131 3.49061C17.8785 3.31887 18.1215 3.31887 18.1869 3.49061L22 13.5L32.4805 13.9764C32.6635 13.9847 32.74 14.2141 32.5986 14.3306L24.5 21L26.8889 31.5112C26.929 31.6874 26.7333 31.8222 26.5829 31.722L18 26L8.93518 31.7251C8.7809 31.8226 8.58742 31.6795 8.63543 31.5034L11.5 21L3.4014 14.3306C3.26003 14.2141 3.33651 13.9847 3.51946 13.9764L14 13.5L17.8131 3.49061Z" fill="url(#paint0_linear_11_10)" fill-opacity="0.81"/>
<path fill-rule="evenodd" clip-rule="evenodd" d="M18.9363 2.99688C18.6119 2.13172 17.3881 2.13171 17.0637 2.99688L13.5 12.5L3.06513 12.9013C2.15428 12.9364 1.76139 14.0722 2.45592 14.6625L10.5 21.5L7.70448 31.484C7.45714 32.3673 8.43039 33.0897 9.20432 32.5972L18 27L26.3776 32.5851C27.1343 33.0895 28.1169 32.404 27.9047 31.5197L25.5 21.5L33.5441 14.6625C34.2386 14.0722 33.8457 12.9364 32.9348 12.9013L22.5 12.5L18.9363 2.99688ZM22 13.5L18.1869 3.49061C18.1215 3.31888 17.8785 3.31888 17.8131 3.49061L14 13.5L3.51945 13.9764C3.33649 13.9847 3.26001 14.2141 3.40139 14.3306L11.5 21L8.63541 31.5034C8.5874 31.6795 8.78089 31.8226 8.93517 31.7252L18 26L26.5829 31.722C26.7333 31.8222 26.929 31.6875 26.8889 31.5112L24.5 21L32.5986 14.3306C32.74 14.2141 32.6635 13.9847 32.4805 13.9764L22 13.5Z" fill="white" fill-opacity="0.65"/>
<defs>
<linearGradient id="paint0_linear_11_10" x1="31.5" y1="12" x2="2" y2="19" gradientUnits="userSpaceOnUse">
<stop stop-color="white" stop-opacity="0.5"/>
<stop offset="0.344489" stop-color="white"/>
<stop offset="0.515" stop-color="white" stop-opacity="0.9"/>
<stop offset="0.839404" stop-color="white" stop-opacity="0.45"/>
<stop offset="0.98" stop-color="white" stop-opacity="0.19"/>
</linearGradient>
</defs>
</svg>
