<svg width="32" height="33" viewBox="0 0 32 33" fill="none" xmlns="http://www.w3.org/2000/svg">
<g filter="url(#filter0_f_19_23)">
<path d="M30.4 12.7333C30.7209 14.0256 30.8559 15.0732 30.9333 16.4667C31.4667 26.0667 23.4667 31.9333 16.2914 31.9333C9.60631 31.9332 3.20001 27.6667 1.60001 20.7333C4.69131 25.9058 10.8972 28.9993 17.8627 27.6069C23.6225 25.9844 31.4651 20.2354 30.4 12.7333Z" fill="white" fill-opacity="0.4"/>
</g>
<circle cx="16" cy="17" r="15.5" stroke="black" stroke-opacity="0.15"/>
<g filter="url(#filter1_f_19_23)">
<path d="M20.8 8.87461C20.8 12.1147 15.8013 14.2079 12.2667 14.2079C8.73208 14.2079 11.7333 11.5413 13.8667 9.40795C14.4 6.74128 8.53335 10.4746 8.00002 6.74128C7.69832 4.62939 9.06668 3.00795 12.2667 2.47461C18.6667 1.94128 20.8 5.63454 20.8 8.87461Z" fill="white" fill-opacity="0.45"/>
</g>
<defs>
<filter id="filter0_f_19_23" x="0.600006" y="11.7333" width="31.3586" height="21.2" filterUnits="userSpaceOnUse" color-interpolation-filters="sRGB">
<feFlood flood-opacity="0" result="BackgroundImageFix"/>
<feBlend mode="normal" in="SourceGraphic" in2="BackgroundImageFix" result="shape"/>
<feGaussianBlur stdDeviation="0.5" result="effect1_foregroundBlur_19_23"/>
</filter>
<filter id="filter1_f_19_23" x="5.95926" y="0.422897" width="16.8408" height="15.785" filterUnits="userSpaceOnUse" color-interpolation-filters="sRGB">
<feFlood flood-opacity="0" result="BackgroundImageFix"/>
<feBlend mode="normal" in="SourceGraphic" in2="BackgroundImageFix" result="shape"/>
<feGaussianBlur stdDeviation="1" result="effect1_foregroundBlur_19_23"/>
</filter>
</defs>
</svg>
