<svg width="38" height="38" viewBox="0 0 38 38" fill="none" xmlns="http://www.w3.org/2000/svg">
<path d="M19.5317 4.25247C19.6936 3.8193 20.3064 3.8193 20.4683 4.25247L23.834 13.2534C23.9043 13.4414 24.0801 13.5691 24.2805 13.5779L33.881 13.9974C34.343 14.0175 34.5324 14.6003 34.1705 14.8882L26.6501 20.8706C26.4931 20.9955 26.4259 21.2021 26.4795 21.3955L29.0473 30.6557C29.1708 31.1014 28.6751 31.4615 28.2895 31.2063L20.276 25.9026C20.1086 25.7919 19.8914 25.7919 19.724 25.9026L11.7105 31.2063C11.3249 31.4615 10.8292 31.1014 10.9527 30.6557L13.5205 21.3955C13.5741 21.2021 13.5069 20.9955 13.3499 20.8706L5.82955 14.8882C5.46763 14.6003 5.65696 14.0175 6.11899 13.9974L15.7195 13.5779C15.9199 13.5691 16.0957 13.4414 16.166 13.2534L19.5317 4.25247Z" fill="black" fill-opacity="0.4"/>
<path d="M17.4683 1.82488C17.3953 1.6295 17.2086 1.5 17 1.5C16.7914 1.5 16.6047 1.6295 16.5317 1.82488L12.6977 12.0783L1.76127 12.5562C1.55287 12.5653 1.37203 12.7028 1.30757 12.9012C1.24311 13.0996 1.30858 13.3172 1.47182 13.447L10.0387 20.2619L7.11362 30.8107C7.05788 31.0117 7.13279 31.2262 7.30154 31.3488C7.4703 31.4714 7.69744 31.4763 7.87139 31.3612L17 25.3196L26.1286 31.3612C26.3026 31.4763 26.5297 31.4714 26.6985 31.3488C26.8672 31.2262 26.9421 31.0117 26.8864 30.8107L23.9613 20.2619L32.5282 13.447C32.6914 13.3172 32.7569 13.0996 32.6924 12.9012C32.628 12.7028 32.4471 12.5653 32.2387 12.5562L21.3023 12.0783L17.4683 1.82488Z" fill="url(#paint0_linear_11_10)" stroke="#BCD1EC" stroke-linejoin="round"/>
<defs>
<linearGradient id="paint0_linear_11_10" x1="30.5" y1="11" x2="1" y2="18" gradientUnits="userSpaceOnUse">
<stop stop-color="#83ADE4"/>
<stop offset="0.344489" stop-color="#B9D1F0"/>
<stop offset="0.515" stop-color="#B9D1F0"/>
<stop offset="0.839404" stop-color="#6498DD"/>
<stop offset="0.98" stop-color="#6498DD"/>
</linearGradient>
</defs>
</svg>
